<?xml version="1.0" standalone="no"?>
<!DOCTYPE svg PUBLIC "-//W3C//DTD SVG 20010904//EN"
 "http://www.w3.org/TR/2001/REC-SVG-20010904/DTD/svg10.dtd">
<svg version="1.0" xmlns="http://www.w3.org/2000/svg"
 width="223.000000pt" height="177.000000pt" viewBox="0 0 223.000000 177.000000"
 preserveAspectRatio="xMidYMid meet">
<metadata>
Created by potrace 1.16, written by Peter Selinger 2001-2019
</metadata>
<g transform="translate(0.000000,177.000000) scale(0.100000,-0.100000)"
fill="#000000" stroke="none">
<path d="M978 1590 c-252 -43 -469 -228 -555 -475 -25 -73 -28 -93 -28 -220 0
-128 3 -148 29 -229 71 -215 248 -387 470 -455 37 -12 79 -21 92 -21 l24 0 0
457 c0 251 -2 454 -5 451 -3 -2 -45 -114 -94 -248 -49 -135 -93 -246 -98 -247
-5 -2 -54 110 -108 249 -54 139 -103 258 -108 263 -6 6 -7 -13 -3 -54 3 -35 6
-147 6 -247 l0 -184 30 0 c17 0 30 -4 30 -10 0 -6 -32 -10 -76 -10 -47 0 -73
4 -69 10 3 5 19 10 36 10 l29 0 0 260 0 259 -36 7 c-61 11 -22 25 62 22 l79
-3 80 -202 c44 -111 82 -204 85 -207 3 -3 40 88 82 202 l75 207 82 3 c80 3
110 -10 51 -21 l-30 -7 0 -486 0 -486 63 7 c269 31 502 219 594 480 25 73 28
92 28 225 0 133 -3 152 -28 225 -61 173 -189 322 -347 403 -45 23 -88 42 -96
42 -12 0 -14 -50 -14 -322 l0 -321 109 114 c106 110 108 114 85 123 -41 17
-26 26 41 26 65 0 86 -12 42 -24 -13 -3 -65 -48 -116 -101 l-92 -95 97 -128
c150 -195 156 -202 175 -202 10 0 21 -4 24 -10 4 -6 -35 -10 -109 -10 -71 0
-116 4 -116 10 0 6 9 10 20 10 11 0 20 3 20 6 0 6 -151 216 -171 238 -5 6 -9
-46 -9 -117 l0 -127 30 0 c17 0 30 -4 30 -10 0 -6 -45 -10 -116 -10 -74 0
-113 4 -109 10 3 6 17 10 31 10 l24 0 0 479 0 479 -22 6 c-31 8 -142 6 -200
-4z"/>
</g>
</svg>
